<mxfile host="app.diagrams.net" modified="2020-11-10T05:57:43.512Z" agent="5.0 (Windows NT 10.0; Win64; x64) AppleWebKit/537.36 (KHTML, like Gecko) Chrome/86.0.4240.183 Safari/537.36" etag="NXcyXGh3zt1D6wUZIJjv" version="13.7.6" type="github">
  <diagram id="V8-Q16pqBgZc0j2_t4U6" name="Page-1">
    <mxGraphModel dx="2805" dy="1929" grid="1" gridSize="10" guides="1" tooltips="1" connect="1" arrows="1" fold="1" page="1" pageScale="1" pageWidth="850" pageHeight="1100" math="0" shadow="0">
      <root>
        <mxCell id="0" />
        <mxCell id="1" parent="0" />
        <mxCell id="Cp72HrH3-smMUGeRDktv-18" value="" style="group" vertex="1" connectable="0" parent="1">
          <mxGeometry x="-540" y="720" width="210" height="290" as="geometry" />
        </mxCell>
        <mxCell id="Cp72HrH3-smMUGeRDktv-14" value="START_INDEX" style="shape=partialRectangle;connectable=0;fillColor=none;top=0;left=0;bottom=0;right=0;align=left;spacingLeft=6;overflow=hidden;direction=west;" vertex="1" parent="Cp72HrH3-smMUGeRDktv-18">
          <mxGeometry x="30" y="220" width="170" height="30" as="geometry" />
        </mxCell>
        <mxCell id="Cp72HrH3-smMUGeRDktv-15" value="END_INDEX" style="shape=partialRectangle;connectable=0;fillColor=none;top=0;left=0;bottom=0;right=0;align=left;spacingLeft=6;overflow=hidden;direction=west;" vertex="1" parent="Cp72HrH3-smMUGeRDktv-18">
          <mxGeometry x="30" y="250" width="170" height="30" as="geometry" />
        </mxCell>
        <mxCell id="Cp72HrH3-smMUGeRDktv-17" value="LEVEL (mb)" style="shape=partialRectangle;connectable=0;fillColor=none;top=0;left=0;bottom=0;right=0;align=left;spacingLeft=6;overflow=hidden;direction=west;" vertex="1" parent="Cp72HrH3-smMUGeRDktv-18">
          <mxGeometry x="30" y="150" width="170" height="30" as="geometry" />
        </mxCell>
        <mxCell id="Cp72HrH3-smMUGeRDktv-1" value="grib index" style="shape=table;startSize=30;container=1;collapsible=1;childLayout=tableLayout;fixedRows=1;rowLines=0;fontStyle=1;align=center;resizeLast=1;" vertex="1" parent="Cp72HrH3-smMUGeRDktv-18">
          <mxGeometry width="200" height="290" as="geometry" />
        </mxCell>
        <mxCell id="Cp72HrH3-smMUGeRDktv-2" value="" style="shape=partialRectangle;collapsible=0;dropTarget=0;pointerEvents=0;fillColor=none;top=0;left=0;bottom=1;right=0;points=[[0,0.5],[1,0.5]];portConstraint=eastwest;" vertex="1" parent="Cp72HrH3-smMUGeRDktv-1">
          <mxGeometry y="30" width="200" height="30" as="geometry" />
        </mxCell>
        <mxCell id="Cp72HrH3-smMUGeRDktv-3" value="PK" style="shape=partialRectangle;connectable=0;fillColor=none;top=0;left=0;bottom=0;right=0;fontStyle=1;overflow=hidden;" vertex="1" parent="Cp72HrH3-smMUGeRDktv-2">
          <mxGeometry width="30" height="30" as="geometry" />
        </mxCell>
        <mxCell id="Cp72HrH3-smMUGeRDktv-4" value="ID" style="shape=partialRectangle;connectable=0;fillColor=none;top=0;left=0;bottom=0;right=0;align=left;spacingLeft=6;fontStyle=5;overflow=hidden;" vertex="1" parent="Cp72HrH3-smMUGeRDktv-2">
          <mxGeometry x="30" width="170" height="30" as="geometry" />
        </mxCell>
        <mxCell id="Cp72HrH3-smMUGeRDktv-5" value="" style="shape=partialRectangle;collapsible=0;dropTarget=0;pointerEvents=0;fillColor=none;top=0;left=0;bottom=0;right=0;points=[[0,0.5],[1,0.5]];portConstraint=eastwest;" vertex="1" parent="Cp72HrH3-smMUGeRDktv-1">
          <mxGeometry y="60" width="200" height="30" as="geometry" />
        </mxCell>
        <mxCell id="Cp72HrH3-smMUGeRDktv-6" value="" style="shape=partialRectangle;connectable=0;fillColor=none;top=0;left=0;bottom=0;right=0;editable=1;overflow=hidden;" vertex="1" parent="Cp72HrH3-smMUGeRDktv-5">
          <mxGeometry width="30" height="30" as="geometry" />
        </mxCell>
        <mxCell id="Cp72HrH3-smMUGeRDktv-7" value="MODEL_TYPE" style="shape=partialRectangle;connectable=0;fillColor=none;top=0;left=0;bottom=0;right=0;align=left;spacingLeft=6;overflow=hidden;" vertex="1" parent="Cp72HrH3-smMUGeRDktv-5">
          <mxGeometry x="30" width="170" height="30" as="geometry" />
        </mxCell>
        <mxCell id="Cp72HrH3-smMUGeRDktv-8" value="" style="shape=partialRectangle;collapsible=0;dropTarget=0;pointerEvents=0;fillColor=none;top=0;left=0;bottom=0;right=0;points=[[0,0.5],[1,0.5]];portConstraint=eastwest;" vertex="1" parent="Cp72HrH3-smMUGeRDktv-1">
          <mxGeometry y="90" width="200" height="30" as="geometry" />
        </mxCell>
        <mxCell id="Cp72HrH3-smMUGeRDktv-9" value="" style="shape=partialRectangle;connectable=0;fillColor=none;top=0;left=0;bottom=0;right=0;editable=1;overflow=hidden;" vertex="1" parent="Cp72HrH3-smMUGeRDktv-8">
          <mxGeometry width="30" height="30" as="geometry" />
        </mxCell>
        <mxCell id="Cp72HrH3-smMUGeRDktv-10" value="BASE_TIME (ms)" style="shape=partialRectangle;connectable=0;fillColor=none;top=0;left=0;bottom=0;right=0;align=left;spacingLeft=6;overflow=hidden;" vertex="1" parent="Cp72HrH3-smMUGeRDktv-8">
          <mxGeometry x="30" width="170" height="30" as="geometry" />
        </mxCell>
        <mxCell id="Cp72HrH3-smMUGeRDktv-11" value="" style="shape=partialRectangle;collapsible=0;dropTarget=0;pointerEvents=0;fillColor=none;top=0;left=0;bottom=0;right=0;points=[[0,0.5],[1,0.5]];portConstraint=eastwest;" vertex="1" parent="Cp72HrH3-smMUGeRDktv-1">
          <mxGeometry y="120" width="200" height="30" as="geometry" />
        </mxCell>
        <mxCell id="Cp72HrH3-smMUGeRDktv-12" value="" style="shape=partialRectangle;connectable=0;fillColor=none;top=0;left=0;bottom=0;right=0;editable=1;overflow=hidden;" vertex="1" parent="Cp72HrH3-smMUGeRDktv-11">
          <mxGeometry width="30" height="30" as="geometry" />
        </mxCell>
        <mxCell id="Cp72HrH3-smMUGeRDktv-13" value="FORECAST_TIME (ms)" style="shape=partialRectangle;connectable=0;fillColor=none;top=0;left=0;bottom=0;right=0;align=left;spacingLeft=6;overflow=hidden;" vertex="1" parent="Cp72HrH3-smMUGeRDktv-11">
          <mxGeometry x="30" width="170" height="30" as="geometry" />
        </mxCell>
        <mxCell id="Cp72HrH3-smMUGeRDktv-95" value="PARAMETER" style="shape=partialRectangle;connectable=0;fillColor=none;top=0;left=0;bottom=0;right=0;align=left;spacingLeft=6;overflow=hidden;direction=west;" vertex="1" parent="Cp72HrH3-smMUGeRDktv-18">
          <mxGeometry x="30" y="180" width="170" height="30" as="geometry" />
        </mxCell>
        <mxCell id="Cp72HrH3-smMUGeRDktv-19" value="" style="points=[];aspect=fixed;html=1;align=center;shadow=0;dashed=0;image;image=img/lib/allied_telesis/storage/Datacenter_Server_Storage_Unit_Large.svg;" vertex="1" parent="1">
          <mxGeometry x="460" y="610" width="223.04" height="230" as="geometry" />
        </mxCell>
        <mxCell id="Cp72HrH3-smMUGeRDktv-20" value="&lt;font style=&quot;font-size: 14px&quot;&gt;storage&lt;/font&gt;" style="text;html=1;strokeColor=none;fillColor=none;align=center;verticalAlign=middle;whiteSpace=wrap;rounded=0;" vertex="1" parent="1">
          <mxGeometry x="650" y="720" width="160" height="60" as="geometry" />
        </mxCell>
        <mxCell id="Cp72HrH3-smMUGeRDktv-34" value="" style="endArrow=classic;html=1;entryX=1;entryY=0.5;entryDx=0;entryDy=0;entryPerimeter=0;exitX=0;exitY=0.5;exitDx=0;exitDy=0;exitPerimeter=0;" edge="1" parent="1" source="Cp72HrH3-smMUGeRDktv-32" target="Cp72HrH3-smMUGeRDktv-28">
          <mxGeometry width="50" height="50" relative="1" as="geometry">
            <mxPoint x="300" y="409.5" as="sourcePoint" />
            <mxPoint x="230" y="410" as="targetPoint" />
          </mxGeometry>
        </mxCell>
        <mxCell id="Cp72HrH3-smMUGeRDktv-35" value="" style="endArrow=classic;startArrow=classic;html=1;entryX=0.292;entryY=1.079;entryDx=0;entryDy=0;entryPerimeter=0;" edge="1" parent="1" source="Cp72HrH3-smMUGeRDktv-22" target="Cp72HrH3-smMUGeRDktv-28">
          <mxGeometry width="50" height="50" relative="1" as="geometry">
            <mxPoint x="140" y="500" as="sourcePoint" />
            <mxPoint x="154" y="440" as="targetPoint" />
          </mxGeometry>
        </mxCell>
        <mxCell id="Cp72HrH3-smMUGeRDktv-36" value="" style="endArrow=classic;startArrow=classic;html=1;exitX=0.754;exitY=0.028;exitDx=0;exitDy=0;exitPerimeter=0;" edge="1" parent="1" source="Cp72HrH3-smMUGeRDktv-22" target="Cp72HrH3-smMUGeRDktv-28">
          <mxGeometry width="50" height="50" relative="1" as="geometry">
            <mxPoint x="170" y="502" as="sourcePoint" />
            <mxPoint x="180" y="440" as="targetPoint" />
          </mxGeometry>
        </mxCell>
        <mxCell id="Cp72HrH3-smMUGeRDktv-46" value="" style="endArrow=classic;html=1;" edge="1" parent="1" source="Cp72HrH3-smMUGeRDktv-44" target="Cp72HrH3-smMUGeRDktv-19">
          <mxGeometry width="50" height="50" relative="1" as="geometry">
            <mxPoint x="605" y="540" as="sourcePoint" />
            <mxPoint x="582" y="621" as="targetPoint" />
          </mxGeometry>
        </mxCell>
        <mxCell id="Cp72HrH3-smMUGeRDktv-47" value="" style="endArrow=classic;html=1;exitX=0;exitY=0.5;exitDx=0;exitDy=0;exitPerimeter=0;entryX=1;entryY=0.5;entryDx=0;entryDy=0;entryPerimeter=0;" edge="1" parent="1" source="Cp72HrH3-smMUGeRDktv-44" target="Cp72HrH3-smMUGeRDktv-32">
          <mxGeometry width="50" height="50" relative="1" as="geometry">
            <mxPoint x="460" y="460" as="sourcePoint" />
            <mxPoint x="-80" y="360" as="targetPoint" />
          </mxGeometry>
        </mxCell>
        <mxCell id="Cp72HrH3-smMUGeRDktv-48" value="&lt;div style=&quot;text-align: left&quot;&gt;&lt;span&gt;&lt;font style=&quot;font-size: 18px&quot;&gt;grib file - a binary file that holds a lot of forecast data. each file has a base time and forecast time.&lt;/font&gt;&lt;/span&gt;&lt;/div&gt;&lt;div style=&quot;text-align: left&quot;&gt;&lt;span&gt;&lt;font size=&quot;3&quot;&gt;&lt;br&gt;&lt;/font&gt;&lt;/span&gt;&lt;/div&gt;&lt;div style=&quot;text-align: left&quot;&gt;&lt;span&gt;&lt;font size=&quot;3&quot;&gt;base time - generation time of the file.&lt;/font&gt;&lt;/span&gt;&lt;/div&gt;&lt;div style=&quot;text-align: left&quot;&gt;&lt;span&gt;&lt;font size=&quot;3&quot;&gt;&lt;br&gt;&lt;/font&gt;&lt;/span&gt;&lt;/div&gt;&lt;div style=&quot;text-align: left&quot;&gt;&lt;font size=&quot;3&quot;&gt;&lt;span&gt;forecast time - time of the forecast, always greater than base time.&lt;/span&gt;&lt;/font&gt;&lt;/div&gt;&lt;div style=&quot;text-align: left&quot;&gt;&lt;font size=&quot;3&quot;&gt;&lt;span&gt;&lt;br&gt;&lt;/span&gt;&lt;/font&gt;&lt;/div&gt;&lt;div style=&quot;text-align: left&quot;&gt;&lt;font size=&quot;3&quot;&gt;&lt;span&gt;each grib file has:&lt;/span&gt;&lt;/font&gt;&lt;/div&gt;&lt;div style=&quot;text-align: left&quot;&gt;&lt;span style=&quot;font-size: medium&quot;&gt;* a lot of types of levels&lt;/span&gt;&lt;br&gt;&lt;/div&gt;&lt;div style=&quot;text-align: left&quot;&gt;&lt;font size=&quot;3&quot;&gt;* a lot of types of coordinates for each level.&lt;/font&gt;&lt;/div&gt;&lt;div style=&quot;text-align: left&quot;&gt;&lt;span style=&quot;font-size: medium&quot;&gt;* a lot of types of parameters for each coordinate.&lt;/span&gt;&lt;font size=&quot;3&quot;&gt;&lt;br&gt;&lt;/font&gt;&lt;/div&gt;&lt;div style=&quot;text-align: left&quot;&gt;&lt;font size=&quot;3&quot;&gt;&lt;br&gt;&lt;/font&gt;&lt;/div&gt;&lt;div style=&quot;text-align: left&quot;&gt;&lt;span&gt;&lt;font size=&quot;3&quot;&gt;level - height of the forecast.&lt;/font&gt;&lt;/span&gt;&lt;/div&gt;&lt;div style=&quot;text-align: left&quot;&gt;&lt;span&gt;&lt;font size=&quot;3&quot;&gt;&lt;br&gt;&lt;/font&gt;&lt;/span&gt;&lt;/div&gt;&lt;div style=&quot;text-align: left&quot;&gt;&lt;span&gt;&lt;font size=&quot;3&quot;&gt;parameter - can be rain, temperature, wind and so on.&lt;/font&gt;&lt;/span&gt;&lt;/div&gt;" style="text;html=1;strokeColor=none;fillColor=none;align=center;verticalAlign=middle;whiteSpace=wrap;rounded=0;" vertex="1" parent="1">
          <mxGeometry x="-825" y="50" width="800" height="100" as="geometry" />
        </mxCell>
        <mxCell id="Cp72HrH3-smMUGeRDktv-55" value="" style="endArrow=classic;html=1;" edge="1" parent="1" source="Cp72HrH3-smMUGeRDktv-49" target="Cp72HrH3-smMUGeRDktv-19">
          <mxGeometry width="50" height="50" relative="1" as="geometry">
            <mxPoint x="440" y="605" as="sourcePoint" />
            <mxPoint x="490" y="555" as="targetPoint" />
          </mxGeometry>
        </mxCell>
        <mxCell id="Cp72HrH3-smMUGeRDktv-56" value="" style="group" vertex="1" connectable="0" parent="1">
          <mxGeometry x="80" y="510" width="130" height="80" as="geometry" />
        </mxCell>
        <mxCell id="Cp72HrH3-smMUGeRDktv-49" value="" style="outlineConnect=0;dashed=0;verticalLabelPosition=bottom;verticalAlign=top;align=center;html=1;shape=mxgraph.aws3.instance;fillColor=#F58534;gradientColor=none;" vertex="1" parent="Cp72HrH3-smMUGeRDktv-56">
          <mxGeometry width="130" height="80" as="geometry" />
        </mxCell>
        <mxCell id="Cp72HrH3-smMUGeRDktv-54" value="IPSM meteostar LEADS" style="text;html=1;strokeColor=none;fillColor=none;align=center;verticalAlign=middle;whiteSpace=wrap;rounded=0;" vertex="1" parent="Cp72HrH3-smMUGeRDktv-56">
          <mxGeometry x="29" y="25" width="70" height="30" as="geometry" />
        </mxCell>
        <mxCell id="Cp72HrH3-smMUGeRDktv-57" value="" style="group" vertex="1" connectable="0" parent="1">
          <mxGeometry x="342.5" y="300" width="85" height="60" as="geometry" />
        </mxCell>
        <mxCell id="Cp72HrH3-smMUGeRDktv-44" value="" style="outlineConnect=0;dashed=0;verticalLabelPosition=bottom;verticalAlign=top;align=center;html=1;shape=mxgraph.aws3.instance;fillColor=#F58534;gradientColor=none;" vertex="1" parent="Cp72HrH3-smMUGeRDktv-57">
          <mxGeometry width="85" height="60" as="geometry" />
        </mxCell>
        <mxCell id="Cp72HrH3-smMUGeRDktv-45" value="internal service&amp;nbsp;" style="text;html=1;strokeColor=none;fillColor=none;align=center;verticalAlign=middle;whiteSpace=wrap;rounded=0;" vertex="1" parent="Cp72HrH3-smMUGeRDktv-57">
          <mxGeometry x="20" y="20" width="40" height="20" as="geometry" />
        </mxCell>
        <mxCell id="Cp72HrH3-smMUGeRDktv-58" value="" style="group" vertex="1" connectable="0" parent="1">
          <mxGeometry x="-100" y="320" width="130" height="80" as="geometry" />
        </mxCell>
        <mxCell id="Cp72HrH3-smMUGeRDktv-32" value="" style="outlineConnect=0;dashed=0;verticalLabelPosition=bottom;verticalAlign=top;align=center;html=1;shape=mxgraph.aws3.instance;fillColor=#F58534;gradientColor=none;" vertex="1" parent="Cp72HrH3-smMUGeRDktv-58">
          <mxGeometry width="130" height="80" as="geometry" />
        </mxCell>
        <mxCell id="Cp72HrH3-smMUGeRDktv-33" value="oracle ingest" style="text;html=1;strokeColor=none;fillColor=none;align=center;verticalAlign=middle;whiteSpace=wrap;rounded=0;" vertex="1" parent="Cp72HrH3-smMUGeRDktv-58">
          <mxGeometry x="44" y="20" width="40" height="40" as="geometry" />
        </mxCell>
        <mxCell id="Cp72HrH3-smMUGeRDktv-59" value="" style="group" vertex="1" connectable="0" parent="1">
          <mxGeometry x="-490" y="380" width="130" height="80" as="geometry" />
        </mxCell>
        <mxCell id="Cp72HrH3-smMUGeRDktv-28" value="" style="outlineConnect=0;dashed=0;verticalLabelPosition=bottom;verticalAlign=top;align=center;html=1;shape=mxgraph.aws3.instance;fillColor=#F58534;gradientColor=none;" vertex="1" parent="Cp72HrH3-smMUGeRDktv-59">
          <mxGeometry width="130" height="80" as="geometry" />
        </mxCell>
        <mxCell id="Cp72HrH3-smMUGeRDktv-29" value="database manager&amp;nbsp;" style="text;html=1;strokeColor=none;fillColor=none;align=center;verticalAlign=middle;whiteSpace=wrap;rounded=0;" vertex="1" parent="Cp72HrH3-smMUGeRDktv-59">
          <mxGeometry x="30" y="20" width="70" height="40" as="geometry" />
        </mxCell>
        <mxCell id="Cp72HrH3-smMUGeRDktv-60" value="" style="group" vertex="1" connectable="0" parent="1">
          <mxGeometry x="700" y="150" width="120" height="80" as="geometry" />
        </mxCell>
        <mxCell id="Cp72HrH3-smMUGeRDktv-38" value="" style="ellipse;whiteSpace=wrap;html=1;" vertex="1" parent="Cp72HrH3-smMUGeRDktv-60">
          <mxGeometry width="120" height="80" as="geometry" />
        </mxCell>
        <mxCell id="Cp72HrH3-smMUGeRDktv-39" value="outside world" style="text;html=1;strokeColor=none;fillColor=none;align=center;verticalAlign=middle;whiteSpace=wrap;rounded=0;" vertex="1" parent="Cp72HrH3-smMUGeRDktv-60">
          <mxGeometry x="40" y="30" width="40" height="20" as="geometry" />
        </mxCell>
        <mxCell id="Cp72HrH3-smMUGeRDktv-66" value="" style="group" vertex="1" connectable="0" parent="1">
          <mxGeometry x="-780" y="1019" width="920" height="50" as="geometry" />
        </mxCell>
        <mxCell id="Cp72HrH3-smMUGeRDktv-24" value="&lt;font style=&quot;font-size: 14px&quot;&gt;ecmwf, 1380240000, 1380499200, 100,&amp;nbsp; 155320, 159230&lt;/font&gt;" style="text;html=1;strokeColor=none;fillColor=none;align=center;verticalAlign=middle;whiteSpace=wrap;rounded=0;" vertex="1" parent="Cp72HrH3-smMUGeRDktv-66">
          <mxGeometry x="9" y="30" width="361" height="20" as="geometry" />
        </mxCell>
        <mxCell id="Cp72HrH3-smMUGeRDktv-25" value="" style="endArrow=classic;html=1;" edge="1" parent="Cp72HrH3-smMUGeRDktv-66">
          <mxGeometry width="50" height="50" relative="1" as="geometry">
            <mxPoint x="374" y="41" as="sourcePoint" />
            <mxPoint x="445" y="41" as="targetPoint" />
            <Array as="points" />
          </mxGeometry>
        </mxCell>
        <mxCell id="Cp72HrH3-smMUGeRDktv-26" value="&lt;font style=&quot;font-size: 14px&quot;&gt;/dynamicFS/gribs/2013/09/27/00Z/model-ecmwf-2013092700000-012.gb&lt;/font&gt;" style="text;html=1;strokeColor=none;fillColor=none;align=center;verticalAlign=middle;whiteSpace=wrap;rounded=0;" vertex="1" parent="Cp72HrH3-smMUGeRDktv-66">
          <mxGeometry x="452" y="30" width="468" height="20" as="geometry" />
        </mxCell>
        <mxCell id="Cp72HrH3-smMUGeRDktv-27" value="&lt;font style=&quot;font-size: 18px&quot;&gt;single row of grib index table :&lt;/font&gt;" style="text;html=1;strokeColor=none;fillColor=none;align=center;verticalAlign=middle;whiteSpace=wrap;rounded=0;" vertex="1" parent="Cp72HrH3-smMUGeRDktv-66">
          <mxGeometry width="250" height="20" as="geometry" />
        </mxCell>
        <mxCell id="Cp72HrH3-smMUGeRDktv-67" value="" style="group" vertex="1" connectable="0" parent="1">
          <mxGeometry x="-470" y="610" width="110" height="100" as="geometry" />
        </mxCell>
        <mxCell id="Cp72HrH3-smMUGeRDktv-22" value="" style="shape=datastore;whiteSpace=wrap;html=1;" vertex="1" parent="Cp72HrH3-smMUGeRDktv-67">
          <mxGeometry width="110" height="100" as="geometry" />
        </mxCell>
        <mxCell id="Cp72HrH3-smMUGeRDktv-23" value="RDBMS" style="text;html=1;strokeColor=none;fillColor=none;align=center;verticalAlign=middle;whiteSpace=wrap;rounded=0;" vertex="1" parent="Cp72HrH3-smMUGeRDktv-67">
          <mxGeometry x="35" y="50" width="40" height="20" as="geometry" />
        </mxCell>
        <mxCell id="Cp72HrH3-smMUGeRDktv-70" value="" style="endArrow=classic;html=1;exitX=0.5;exitY=1;exitDx=0;exitDy=0;exitPerimeter=0;entryX=0.5;entryY=0;entryDx=0;entryDy=0;entryPerimeter=0;" edge="1" parent="1" source="Cp72HrH3-smMUGeRDktv-44" target="Cp72HrH3-smMUGeRDktv-49">
          <mxGeometry width="50" height="50" relative="1" as="geometry">
            <mxPoint x="70" y="540" as="sourcePoint" />
            <mxPoint x="120" y="490" as="targetPoint" />
          </mxGeometry>
        </mxCell>
        <mxCell id="Cp72HrH3-smMUGeRDktv-73" value="" style="endArrow=classic;html=1;exitX=-0.022;exitY=0.646;exitDx=0;exitDy=0;exitPerimeter=0;entryX=0.95;entryY=0.05;entryDx=0;entryDy=0;entryPerimeter=0;" edge="1" parent="1" source="Cp72HrH3-smMUGeRDktv-38" target="Cp72HrH3-smMUGeRDktv-44">
          <mxGeometry width="50" height="50" relative="1" as="geometry">
            <mxPoint x="590" y="210" as="sourcePoint" />
            <mxPoint x="640" y="160" as="targetPoint" />
          </mxGeometry>
        </mxCell>
        <mxCell id="Cp72HrH3-smMUGeRDktv-74" value="grib flow 24/7" style="text;html=1;strokeColor=none;fillColor=none;align=center;verticalAlign=middle;whiteSpace=wrap;rounded=0;" vertex="1" parent="1">
          <mxGeometry x="530" y="200" width="90" height="20" as="geometry" />
        </mxCell>
        <mxCell id="Cp72HrH3-smMUGeRDktv-75" value="" style="ellipse;whiteSpace=wrap;html=1;" vertex="1" parent="1">
          <mxGeometry x="-280" y="80" width="120" height="80" as="geometry" />
        </mxCell>
        <mxCell id="Cp72HrH3-smMUGeRDktv-77" value="" style="ellipse;whiteSpace=wrap;html=1;" vertex="1" parent="1">
          <mxGeometry x="-390" y="260" width="120" height="80" as="geometry" />
        </mxCell>
        <mxCell id="Cp72HrH3-smMUGeRDktv-97" value="" style="rounded=1;whiteSpace=wrap;html=1;" vertex="1" parent="1">
          <mxGeometry x="-670" y="310" width="120" height="60" as="geometry" />
        </mxCell>
        <mxCell id="Cp72HrH3-smMUGeRDktv-98" value="" style="rounded=1;whiteSpace=wrap;html=1;" vertex="1" parent="1">
          <mxGeometry x="-390" y="180" width="380" height="60" as="geometry" />
        </mxCell>
        <mxCell id="Cp72HrH3-smMUGeRDktv-99" value="" style="ellipse;whiteSpace=wrap;html=1;" vertex="1" parent="1">
          <mxGeometry x="-320" y="260" width="120" height="80" as="geometry" />
        </mxCell>
        <mxCell id="Cp72HrH3-smMUGeRDktv-100" value="" style="ellipse;whiteSpace=wrap;html=1;" vertex="1" parent="1">
          <mxGeometry x="-230" y="260" width="120" height="80" as="geometry" />
        </mxCell>
      </root>
    </mxGraphModel>
  </diagram>
</mxfile>
